%
M48
M72
T01C0.03200
T02C0.04000
T03C0.04400
T04C0.04700
T05C0.05200
T06C0.11024
%
T01
X319170Y131571
X339170Y131571
X329170Y101256
X329170Y81256
X339170Y171256
X319170Y171256
T02
X229603Y51453
X229603Y30783
X162674Y31768
X127595Y31256
X102595Y36256
X102595Y16256
X127910Y11571
X162674Y51453
T03
X257792Y51256
X283540Y61256
X309170Y61256
X337674Y52319
X309170Y21256
X283540Y21256
X257792Y11256
X337674Y12319
X374170Y126256
X414170Y126256
T04
X404012Y166256
X384327Y166256
X450430Y47043
X450430Y27358
X62595Y28539
X62595Y48224
T05
X370670Y37441
X417670Y37441
X417670Y85441
X394170Y93441
X370670Y85441
T06
X50469Y9130
X78028Y115429
X50469Y190232
X282753Y115429
X471729Y190232
X471729Y9130
M30
