G75*
%MOIN*%
%OFA0B0*%
%FSLAX25Y25*%
%IPPOS*%
%LPD*%
%AMOC8*
5,1,8,0,0,1.08239X$1,22.5*
%
%ADD10C,0.11824*%
%ADD11C,0.06000*%
%ADD12C,0.08400*%
%ADD13C,0.08600*%
%ADD14C,0.07850*%
%ADD15OC8,0.08400*%
D10*
X0050469Y0009130D03*
X0078028Y0115429D03*
X0050469Y0190232D03*
X0282753Y0115429D03*
X0471729Y0190232D03*
X0471729Y0009130D03*
D11*
X0331770Y0081256D02*
X0326570Y0081256D01*
X0326570Y0101256D02*
X0331770Y0101256D01*
X0339170Y0128971D02*
X0339170Y0134171D01*
X0319170Y0134171D02*
X0319170Y0128971D01*
X0319170Y0168656D02*
X0319170Y0173856D01*
X0339170Y0173856D02*
X0339170Y0168656D01*
D12*
X0374170Y0126256D03*
X0414170Y0126256D03*
X0309170Y0061256D03*
X0283540Y0061256D03*
X0257792Y0051256D03*
X0283540Y0021256D03*
X0309170Y0021256D03*
X0337674Y0012319D03*
X0257792Y0011256D03*
X0337674Y0052319D03*
D13*
X0370670Y0041341D02*
X0370670Y0033541D01*
X0417670Y0033541D02*
X0417670Y0041341D01*
X0417670Y0081541D02*
X0417670Y0089341D01*
X0394170Y0089541D02*
X0394170Y0097341D01*
X0370670Y0089341D02*
X0370670Y0081541D01*
D14*
X0446905Y0047043D02*
X0453955Y0047043D01*
X0453955Y0027358D02*
X0446905Y0027358D01*
X0404012Y0162731D02*
X0404012Y0169781D01*
X0384327Y0169781D02*
X0384327Y0162731D01*
X0066120Y0048224D02*
X0059070Y0048224D01*
X0059070Y0028539D02*
X0066120Y0028539D01*
D15*
X0102595Y0036256D03*
X0127595Y0031256D03*
X0102595Y0016256D03*
X0127910Y0011571D03*
X0162674Y0031768D03*
X0162674Y0051453D03*
X0229603Y0051453D03*
X0229603Y0030783D03*
M02*
