G75*
%MOIN*%
%OFA0B0*%
%FSLAX25Y25*%
%IPPOS*%
%LPD*%
%AMOC8*
5,1,8,0,0,1.08239X$1,22.5*
%
%ADD10C,0.00600*%
%ADD11C,0.01600*%
%ADD12C,0.00500*%
%ADD13R,0.10000X0.02000*%
%ADD14R,0.03000X0.07500*%
%ADD15R,0.02000X0.10000*%
%ADD16R,0.07500X0.03000*%
%ADD17C,0.01000*%
%ADD18C,0.00700*%
D10*
X0046095Y0018724D02*
X0055497Y0018724D01*
X0081497Y0018724D01*
X0081497Y0058024D01*
X0082296Y0058024D01*
X0082296Y0018724D01*
X0081497Y0018724D01*
X0074295Y0028524D02*
X0074297Y0028613D01*
X0074303Y0028702D01*
X0074313Y0028791D01*
X0074327Y0028879D01*
X0074344Y0028966D01*
X0074366Y0029052D01*
X0074392Y0029138D01*
X0074421Y0029222D01*
X0074454Y0029305D01*
X0074490Y0029386D01*
X0074531Y0029466D01*
X0074574Y0029543D01*
X0074621Y0029619D01*
X0074672Y0029692D01*
X0074725Y0029763D01*
X0074782Y0029832D01*
X0074842Y0029898D01*
X0074905Y0029962D01*
X0074970Y0030022D01*
X0075038Y0030080D01*
X0075109Y0030134D01*
X0075182Y0030185D01*
X0075257Y0030233D01*
X0075334Y0030278D01*
X0075413Y0030319D01*
X0075494Y0030356D01*
X0075576Y0030390D01*
X0075660Y0030421D01*
X0075745Y0030447D01*
X0075831Y0030470D01*
X0075918Y0030488D01*
X0076006Y0030503D01*
X0076095Y0030514D01*
X0076184Y0030521D01*
X0076273Y0030524D01*
X0076362Y0030523D01*
X0076451Y0030518D01*
X0076539Y0030509D01*
X0076628Y0030496D01*
X0076715Y0030479D01*
X0076802Y0030459D01*
X0076888Y0030434D01*
X0076972Y0030406D01*
X0077055Y0030374D01*
X0077137Y0030338D01*
X0077217Y0030299D01*
X0077295Y0030256D01*
X0077371Y0030210D01*
X0077445Y0030160D01*
X0077517Y0030107D01*
X0077586Y0030051D01*
X0077653Y0029992D01*
X0077717Y0029930D01*
X0077778Y0029866D01*
X0077837Y0029798D01*
X0077892Y0029728D01*
X0077944Y0029656D01*
X0077993Y0029581D01*
X0078038Y0029505D01*
X0078080Y0029426D01*
X0078118Y0029346D01*
X0078153Y0029264D01*
X0078184Y0029180D01*
X0078212Y0029095D01*
X0078235Y0029009D01*
X0078255Y0028922D01*
X0078271Y0028835D01*
X0078283Y0028746D01*
X0078291Y0028658D01*
X0078295Y0028569D01*
X0078295Y0028479D01*
X0078291Y0028390D01*
X0078283Y0028302D01*
X0078271Y0028213D01*
X0078255Y0028126D01*
X0078235Y0028039D01*
X0078212Y0027953D01*
X0078184Y0027868D01*
X0078153Y0027784D01*
X0078118Y0027702D01*
X0078080Y0027622D01*
X0078038Y0027543D01*
X0077993Y0027467D01*
X0077944Y0027392D01*
X0077892Y0027320D01*
X0077837Y0027250D01*
X0077778Y0027182D01*
X0077717Y0027118D01*
X0077653Y0027056D01*
X0077586Y0026997D01*
X0077517Y0026941D01*
X0077445Y0026888D01*
X0077371Y0026838D01*
X0077295Y0026792D01*
X0077217Y0026749D01*
X0077137Y0026710D01*
X0077055Y0026674D01*
X0076972Y0026642D01*
X0076888Y0026614D01*
X0076802Y0026589D01*
X0076715Y0026569D01*
X0076628Y0026552D01*
X0076539Y0026539D01*
X0076451Y0026530D01*
X0076362Y0026525D01*
X0076273Y0026524D01*
X0076184Y0026527D01*
X0076095Y0026534D01*
X0076006Y0026545D01*
X0075918Y0026560D01*
X0075831Y0026578D01*
X0075745Y0026601D01*
X0075660Y0026627D01*
X0075576Y0026658D01*
X0075494Y0026692D01*
X0075413Y0026729D01*
X0075334Y0026770D01*
X0075257Y0026815D01*
X0075182Y0026863D01*
X0075109Y0026914D01*
X0075038Y0026968D01*
X0074970Y0027026D01*
X0074905Y0027086D01*
X0074842Y0027150D01*
X0074782Y0027216D01*
X0074725Y0027285D01*
X0074672Y0027356D01*
X0074621Y0027429D01*
X0074574Y0027505D01*
X0074531Y0027582D01*
X0074490Y0027662D01*
X0074454Y0027743D01*
X0074421Y0027826D01*
X0074392Y0027910D01*
X0074366Y0027996D01*
X0074344Y0028082D01*
X0074327Y0028169D01*
X0074313Y0028257D01*
X0074303Y0028346D01*
X0074297Y0028435D01*
X0074295Y0028524D01*
X0055497Y0032024D02*
X0055497Y0044724D01*
X0055497Y0051724D02*
X0055497Y0058024D01*
X0081497Y0058024D01*
X0074295Y0048224D02*
X0074297Y0048313D01*
X0074303Y0048402D01*
X0074313Y0048491D01*
X0074327Y0048579D01*
X0074344Y0048666D01*
X0074366Y0048752D01*
X0074392Y0048838D01*
X0074421Y0048922D01*
X0074454Y0049005D01*
X0074490Y0049086D01*
X0074531Y0049166D01*
X0074574Y0049243D01*
X0074621Y0049319D01*
X0074672Y0049392D01*
X0074725Y0049463D01*
X0074782Y0049532D01*
X0074842Y0049598D01*
X0074905Y0049662D01*
X0074970Y0049722D01*
X0075038Y0049780D01*
X0075109Y0049834D01*
X0075182Y0049885D01*
X0075257Y0049933D01*
X0075334Y0049978D01*
X0075413Y0050019D01*
X0075494Y0050056D01*
X0075576Y0050090D01*
X0075660Y0050121D01*
X0075745Y0050147D01*
X0075831Y0050170D01*
X0075918Y0050188D01*
X0076006Y0050203D01*
X0076095Y0050214D01*
X0076184Y0050221D01*
X0076273Y0050224D01*
X0076362Y0050223D01*
X0076451Y0050218D01*
X0076539Y0050209D01*
X0076628Y0050196D01*
X0076715Y0050179D01*
X0076802Y0050159D01*
X0076888Y0050134D01*
X0076972Y0050106D01*
X0077055Y0050074D01*
X0077137Y0050038D01*
X0077217Y0049999D01*
X0077295Y0049956D01*
X0077371Y0049910D01*
X0077445Y0049860D01*
X0077517Y0049807D01*
X0077586Y0049751D01*
X0077653Y0049692D01*
X0077717Y0049630D01*
X0077778Y0049566D01*
X0077837Y0049498D01*
X0077892Y0049428D01*
X0077944Y0049356D01*
X0077993Y0049281D01*
X0078038Y0049205D01*
X0078080Y0049126D01*
X0078118Y0049046D01*
X0078153Y0048964D01*
X0078184Y0048880D01*
X0078212Y0048795D01*
X0078235Y0048709D01*
X0078255Y0048622D01*
X0078271Y0048535D01*
X0078283Y0048446D01*
X0078291Y0048358D01*
X0078295Y0048269D01*
X0078295Y0048179D01*
X0078291Y0048090D01*
X0078283Y0048002D01*
X0078271Y0047913D01*
X0078255Y0047826D01*
X0078235Y0047739D01*
X0078212Y0047653D01*
X0078184Y0047568D01*
X0078153Y0047484D01*
X0078118Y0047402D01*
X0078080Y0047322D01*
X0078038Y0047243D01*
X0077993Y0047167D01*
X0077944Y0047092D01*
X0077892Y0047020D01*
X0077837Y0046950D01*
X0077778Y0046882D01*
X0077717Y0046818D01*
X0077653Y0046756D01*
X0077586Y0046697D01*
X0077517Y0046641D01*
X0077445Y0046588D01*
X0077371Y0046538D01*
X0077295Y0046492D01*
X0077217Y0046449D01*
X0077137Y0046410D01*
X0077055Y0046374D01*
X0076972Y0046342D01*
X0076888Y0046314D01*
X0076802Y0046289D01*
X0076715Y0046269D01*
X0076628Y0046252D01*
X0076539Y0046239D01*
X0076451Y0046230D01*
X0076362Y0046225D01*
X0076273Y0046224D01*
X0076184Y0046227D01*
X0076095Y0046234D01*
X0076006Y0046245D01*
X0075918Y0046260D01*
X0075831Y0046278D01*
X0075745Y0046301D01*
X0075660Y0046327D01*
X0075576Y0046358D01*
X0075494Y0046392D01*
X0075413Y0046429D01*
X0075334Y0046470D01*
X0075257Y0046515D01*
X0075182Y0046563D01*
X0075109Y0046614D01*
X0075038Y0046668D01*
X0074970Y0046726D01*
X0074905Y0046786D01*
X0074842Y0046850D01*
X0074782Y0046916D01*
X0074725Y0046985D01*
X0074672Y0047056D01*
X0074621Y0047129D01*
X0074574Y0047205D01*
X0074531Y0047282D01*
X0074490Y0047362D01*
X0074454Y0047443D01*
X0074421Y0047526D01*
X0074392Y0047610D01*
X0074366Y0047696D01*
X0074344Y0047782D01*
X0074327Y0047869D01*
X0074313Y0047957D01*
X0074303Y0048046D01*
X0074297Y0048135D01*
X0074295Y0048224D01*
X0055497Y0058024D02*
X0046095Y0058024D01*
X0046095Y0018724D01*
X0055497Y0018724D02*
X0055497Y0025024D01*
X0097595Y0018756D02*
X0097595Y0013756D01*
X0100095Y0011256D01*
X0105095Y0011256D01*
X0107595Y0013756D01*
X0107595Y0018756D01*
X0105095Y0021256D01*
X0100095Y0021256D01*
X0097595Y0018756D01*
X0100095Y0031256D02*
X0105095Y0031256D01*
X0107595Y0033756D01*
X0107595Y0038756D01*
X0105095Y0041256D01*
X0100095Y0041256D01*
X0097595Y0038756D01*
X0097595Y0033756D01*
X0100095Y0031256D01*
X0122595Y0033756D02*
X0122595Y0028756D01*
X0125095Y0026256D01*
X0130095Y0026256D01*
X0132595Y0028756D01*
X0132595Y0033756D01*
X0130095Y0036256D01*
X0125095Y0036256D01*
X0122595Y0033756D01*
X0125410Y0016571D02*
X0122910Y0014071D01*
X0122910Y0009071D01*
X0125410Y0006571D01*
X0130410Y0006571D01*
X0132910Y0009071D01*
X0132910Y0014071D01*
X0130410Y0016571D01*
X0125410Y0016571D01*
X0157674Y0029268D02*
X0157674Y0034268D01*
X0160174Y0036768D01*
X0165174Y0036768D01*
X0167674Y0034268D01*
X0167674Y0029268D01*
X0165174Y0026768D01*
X0160174Y0026768D01*
X0157674Y0029268D01*
X0160174Y0046453D02*
X0165174Y0046453D01*
X0167674Y0048953D01*
X0167674Y0053953D01*
X0165174Y0056453D01*
X0160174Y0056453D01*
X0157674Y0053953D01*
X0157674Y0048953D01*
X0160174Y0046453D01*
X0224603Y0048953D02*
X0227103Y0046453D01*
X0232103Y0046453D01*
X0234603Y0048953D01*
X0234603Y0053953D01*
X0232103Y0056453D01*
X0227103Y0056453D01*
X0224603Y0053953D01*
X0224603Y0048953D01*
X0227103Y0035783D02*
X0224603Y0033283D01*
X0224603Y0028283D01*
X0227103Y0025783D01*
X0232103Y0025783D01*
X0234603Y0028283D01*
X0234603Y0033283D01*
X0232103Y0035783D01*
X0227103Y0035783D01*
X0252792Y0039256D02*
X0252792Y0023256D01*
X0262792Y0023256D01*
X0262792Y0039256D01*
X0252792Y0039256D01*
X0255292Y0035256D02*
X0257792Y0031256D01*
X0260292Y0031256D01*
X0257792Y0031256D02*
X0255292Y0031256D01*
X0257792Y0031256D02*
X0257792Y0028756D01*
X0257792Y0031256D02*
X0257792Y0037256D01*
X0255292Y0035256D02*
X0260292Y0035256D01*
X0257792Y0031256D01*
X0278540Y0033256D02*
X0288540Y0033256D01*
X0288540Y0049256D01*
X0278540Y0049256D01*
X0278540Y0033256D01*
X0283540Y0035256D02*
X0283540Y0041256D01*
X0281040Y0041256D01*
X0283540Y0041256D02*
X0286040Y0041256D01*
X0283540Y0041256D02*
X0281040Y0037256D01*
X0286040Y0037256D01*
X0283540Y0041256D01*
X0283540Y0043756D01*
X0304170Y0049256D02*
X0304170Y0033256D01*
X0314170Y0033256D01*
X0314170Y0049256D01*
X0304170Y0049256D01*
X0309170Y0047256D02*
X0309170Y0041256D01*
X0311670Y0041256D01*
X0309170Y0041256D02*
X0309170Y0038756D01*
X0309170Y0041256D02*
X0306670Y0041256D01*
X0309170Y0041256D02*
X0306670Y0045256D01*
X0311670Y0045256D01*
X0309170Y0041256D01*
X0332674Y0040319D02*
X0342674Y0040319D01*
X0342674Y0024319D01*
X0332674Y0024319D01*
X0332674Y0040319D01*
X0337674Y0034819D02*
X0337674Y0032319D01*
X0335174Y0032319D01*
X0337674Y0032319D02*
X0340174Y0032319D01*
X0337674Y0032319D02*
X0335174Y0028319D01*
X0340174Y0028319D01*
X0337674Y0032319D01*
X0337674Y0026319D01*
X0361670Y0014441D02*
X0361670Y0103441D01*
X0426670Y0103441D01*
X0426670Y0014441D01*
X0361670Y0014441D01*
X0379370Y0037441D02*
X0391670Y0037441D01*
X0394170Y0039941D02*
X0394170Y0065941D01*
X0396670Y0068441D02*
X0391670Y0078441D01*
X0396670Y0078441D01*
X0394170Y0080941D02*
X0394170Y0084941D01*
X0396670Y0073441D02*
X0417670Y0073441D01*
X0417670Y0075941D01*
X0391670Y0073441D02*
X0370670Y0073441D01*
X0370670Y0075941D01*
X0343670Y0077756D02*
X0343670Y0104756D01*
X0343668Y0104816D01*
X0343663Y0104877D01*
X0343654Y0104936D01*
X0343641Y0104995D01*
X0343625Y0105054D01*
X0343605Y0105111D01*
X0343582Y0105166D01*
X0343555Y0105221D01*
X0343526Y0105273D01*
X0343493Y0105324D01*
X0343457Y0105373D01*
X0343419Y0105419D01*
X0343377Y0105463D01*
X0343333Y0105505D01*
X0343287Y0105543D01*
X0343238Y0105579D01*
X0343187Y0105612D01*
X0343135Y0105641D01*
X0343080Y0105668D01*
X0343025Y0105691D01*
X0342968Y0105711D01*
X0342909Y0105727D01*
X0342850Y0105740D01*
X0342791Y0105749D01*
X0342730Y0105754D01*
X0342670Y0105756D01*
X0315670Y0105756D01*
X0315610Y0105754D01*
X0315549Y0105749D01*
X0315490Y0105740D01*
X0315431Y0105727D01*
X0315372Y0105711D01*
X0315315Y0105691D01*
X0315260Y0105668D01*
X0315205Y0105641D01*
X0315153Y0105612D01*
X0315102Y0105579D01*
X0315053Y0105543D01*
X0315007Y0105505D01*
X0314963Y0105463D01*
X0314921Y0105419D01*
X0314883Y0105373D01*
X0314847Y0105324D01*
X0314814Y0105273D01*
X0314785Y0105221D01*
X0314758Y0105166D01*
X0314735Y0105111D01*
X0314715Y0105054D01*
X0314699Y0104995D01*
X0314686Y0104936D01*
X0314677Y0104877D01*
X0314672Y0104816D01*
X0314670Y0104756D01*
X0314670Y0077756D01*
X0314672Y0077696D01*
X0314677Y0077635D01*
X0314686Y0077576D01*
X0314699Y0077517D01*
X0314715Y0077458D01*
X0314735Y0077401D01*
X0314758Y0077346D01*
X0314785Y0077291D01*
X0314814Y0077239D01*
X0314847Y0077188D01*
X0314883Y0077139D01*
X0314921Y0077093D01*
X0314963Y0077049D01*
X0315007Y0077007D01*
X0315053Y0076969D01*
X0315102Y0076933D01*
X0315153Y0076900D01*
X0315205Y0076871D01*
X0315260Y0076844D01*
X0315315Y0076821D01*
X0315372Y0076801D01*
X0315431Y0076785D01*
X0315490Y0076772D01*
X0315549Y0076763D01*
X0315610Y0076758D01*
X0315670Y0076756D01*
X0342670Y0076756D01*
X0342730Y0076758D01*
X0342791Y0076763D01*
X0342850Y0076772D01*
X0342909Y0076785D01*
X0342968Y0076801D01*
X0343025Y0076821D01*
X0343080Y0076844D01*
X0343135Y0076871D01*
X0343187Y0076900D01*
X0343238Y0076933D01*
X0343287Y0076969D01*
X0343333Y0077007D01*
X0343377Y0077049D01*
X0343419Y0077093D01*
X0343457Y0077139D01*
X0343493Y0077188D01*
X0343526Y0077239D01*
X0343555Y0077291D01*
X0343582Y0077346D01*
X0343605Y0077401D01*
X0343625Y0077458D01*
X0343641Y0077517D01*
X0343654Y0077576D01*
X0343663Y0077635D01*
X0343668Y0077696D01*
X0343670Y0077756D01*
X0329170Y0085256D02*
X0329170Y0089556D01*
X0329170Y0093056D02*
X0329170Y0097256D01*
X0315670Y0117071D02*
X0342670Y0117071D01*
X0342730Y0117073D01*
X0342791Y0117078D01*
X0342850Y0117087D01*
X0342909Y0117100D01*
X0342968Y0117116D01*
X0343025Y0117136D01*
X0343080Y0117159D01*
X0343135Y0117186D01*
X0343187Y0117215D01*
X0343238Y0117248D01*
X0343287Y0117284D01*
X0343333Y0117322D01*
X0343377Y0117364D01*
X0343419Y0117408D01*
X0343457Y0117454D01*
X0343493Y0117503D01*
X0343526Y0117554D01*
X0343555Y0117606D01*
X0343582Y0117661D01*
X0343605Y0117716D01*
X0343625Y0117773D01*
X0343641Y0117832D01*
X0343654Y0117891D01*
X0343663Y0117950D01*
X0343668Y0118011D01*
X0343670Y0118071D01*
X0343670Y0145071D01*
X0343668Y0145131D01*
X0343663Y0145192D01*
X0343654Y0145251D01*
X0343641Y0145310D01*
X0343625Y0145369D01*
X0343605Y0145426D01*
X0343582Y0145481D01*
X0343555Y0145536D01*
X0343526Y0145588D01*
X0343493Y0145639D01*
X0343457Y0145688D01*
X0343419Y0145734D01*
X0343377Y0145778D01*
X0343333Y0145820D01*
X0343287Y0145858D01*
X0343238Y0145894D01*
X0343187Y0145927D01*
X0343135Y0145956D01*
X0343080Y0145983D01*
X0343025Y0146006D01*
X0342968Y0146026D01*
X0342909Y0146042D01*
X0342850Y0146055D01*
X0342791Y0146064D01*
X0342730Y0146069D01*
X0342670Y0146071D01*
X0315670Y0146071D01*
X0315610Y0146069D01*
X0315549Y0146064D01*
X0315490Y0146055D01*
X0315431Y0146042D01*
X0315372Y0146026D01*
X0315315Y0146006D01*
X0315260Y0145983D01*
X0315205Y0145956D01*
X0315153Y0145927D01*
X0315102Y0145894D01*
X0315053Y0145858D01*
X0315007Y0145820D01*
X0314963Y0145778D01*
X0314921Y0145734D01*
X0314883Y0145688D01*
X0314847Y0145639D01*
X0314814Y0145588D01*
X0314785Y0145536D01*
X0314758Y0145481D01*
X0314735Y0145426D01*
X0314715Y0145369D01*
X0314699Y0145310D01*
X0314686Y0145251D01*
X0314677Y0145192D01*
X0314672Y0145131D01*
X0314670Y0145071D01*
X0314670Y0118071D01*
X0314672Y0118011D01*
X0314677Y0117950D01*
X0314686Y0117891D01*
X0314699Y0117832D01*
X0314715Y0117773D01*
X0314735Y0117716D01*
X0314758Y0117661D01*
X0314785Y0117606D01*
X0314814Y0117554D01*
X0314847Y0117503D01*
X0314883Y0117454D01*
X0314921Y0117408D01*
X0314963Y0117364D01*
X0315007Y0117322D01*
X0315053Y0117284D01*
X0315102Y0117248D01*
X0315153Y0117215D01*
X0315205Y0117186D01*
X0315260Y0117159D01*
X0315315Y0117136D01*
X0315372Y0117116D01*
X0315431Y0117100D01*
X0315490Y0117087D01*
X0315549Y0117078D01*
X0315610Y0117073D01*
X0315670Y0117071D01*
X0323170Y0131571D02*
X0327470Y0131571D01*
X0330970Y0131571D02*
X0335170Y0131571D01*
X0374512Y0146555D02*
X0413812Y0146555D01*
X0413812Y0147354D01*
X0374512Y0147354D01*
X0374512Y0173354D01*
X0374512Y0182756D01*
X0413812Y0182756D01*
X0413812Y0173354D01*
X0413812Y0147354D01*
X0402012Y0152556D02*
X0402014Y0152645D01*
X0402020Y0152734D01*
X0402030Y0152823D01*
X0402044Y0152911D01*
X0402061Y0152998D01*
X0402083Y0153084D01*
X0402109Y0153170D01*
X0402138Y0153254D01*
X0402171Y0153337D01*
X0402207Y0153418D01*
X0402248Y0153498D01*
X0402291Y0153575D01*
X0402338Y0153651D01*
X0402389Y0153724D01*
X0402442Y0153795D01*
X0402499Y0153864D01*
X0402559Y0153930D01*
X0402622Y0153994D01*
X0402687Y0154054D01*
X0402755Y0154112D01*
X0402826Y0154166D01*
X0402899Y0154217D01*
X0402974Y0154265D01*
X0403051Y0154310D01*
X0403130Y0154351D01*
X0403211Y0154388D01*
X0403293Y0154422D01*
X0403377Y0154453D01*
X0403462Y0154479D01*
X0403548Y0154502D01*
X0403635Y0154520D01*
X0403723Y0154535D01*
X0403812Y0154546D01*
X0403901Y0154553D01*
X0403990Y0154556D01*
X0404079Y0154555D01*
X0404168Y0154550D01*
X0404256Y0154541D01*
X0404345Y0154528D01*
X0404432Y0154511D01*
X0404519Y0154491D01*
X0404605Y0154466D01*
X0404689Y0154438D01*
X0404772Y0154406D01*
X0404854Y0154370D01*
X0404934Y0154331D01*
X0405012Y0154288D01*
X0405088Y0154242D01*
X0405162Y0154192D01*
X0405234Y0154139D01*
X0405303Y0154083D01*
X0405370Y0154024D01*
X0405434Y0153962D01*
X0405495Y0153898D01*
X0405554Y0153830D01*
X0405609Y0153760D01*
X0405661Y0153688D01*
X0405710Y0153613D01*
X0405755Y0153537D01*
X0405797Y0153458D01*
X0405835Y0153378D01*
X0405870Y0153296D01*
X0405901Y0153212D01*
X0405929Y0153127D01*
X0405952Y0153041D01*
X0405972Y0152954D01*
X0405988Y0152867D01*
X0406000Y0152778D01*
X0406008Y0152690D01*
X0406012Y0152601D01*
X0406012Y0152511D01*
X0406008Y0152422D01*
X0406000Y0152334D01*
X0405988Y0152245D01*
X0405972Y0152158D01*
X0405952Y0152071D01*
X0405929Y0151985D01*
X0405901Y0151900D01*
X0405870Y0151816D01*
X0405835Y0151734D01*
X0405797Y0151654D01*
X0405755Y0151575D01*
X0405710Y0151499D01*
X0405661Y0151424D01*
X0405609Y0151352D01*
X0405554Y0151282D01*
X0405495Y0151214D01*
X0405434Y0151150D01*
X0405370Y0151088D01*
X0405303Y0151029D01*
X0405234Y0150973D01*
X0405162Y0150920D01*
X0405088Y0150870D01*
X0405012Y0150824D01*
X0404934Y0150781D01*
X0404854Y0150742D01*
X0404772Y0150706D01*
X0404689Y0150674D01*
X0404605Y0150646D01*
X0404519Y0150621D01*
X0404432Y0150601D01*
X0404345Y0150584D01*
X0404256Y0150571D01*
X0404168Y0150562D01*
X0404079Y0150557D01*
X0403990Y0150556D01*
X0403901Y0150559D01*
X0403812Y0150566D01*
X0403723Y0150577D01*
X0403635Y0150592D01*
X0403548Y0150610D01*
X0403462Y0150633D01*
X0403377Y0150659D01*
X0403293Y0150690D01*
X0403211Y0150724D01*
X0403130Y0150761D01*
X0403051Y0150802D01*
X0402974Y0150847D01*
X0402899Y0150895D01*
X0402826Y0150946D01*
X0402755Y0151000D01*
X0402687Y0151058D01*
X0402622Y0151118D01*
X0402559Y0151182D01*
X0402499Y0151248D01*
X0402442Y0151317D01*
X0402389Y0151388D01*
X0402338Y0151461D01*
X0402291Y0151537D01*
X0402248Y0151614D01*
X0402207Y0151694D01*
X0402171Y0151775D01*
X0402138Y0151858D01*
X0402109Y0151942D01*
X0402083Y0152028D01*
X0402061Y0152114D01*
X0402044Y0152201D01*
X0402030Y0152289D01*
X0402020Y0152378D01*
X0402014Y0152467D01*
X0402012Y0152556D01*
X0382312Y0152556D02*
X0382314Y0152645D01*
X0382320Y0152734D01*
X0382330Y0152823D01*
X0382344Y0152911D01*
X0382361Y0152998D01*
X0382383Y0153084D01*
X0382409Y0153170D01*
X0382438Y0153254D01*
X0382471Y0153337D01*
X0382507Y0153418D01*
X0382548Y0153498D01*
X0382591Y0153575D01*
X0382638Y0153651D01*
X0382689Y0153724D01*
X0382742Y0153795D01*
X0382799Y0153864D01*
X0382859Y0153930D01*
X0382922Y0153994D01*
X0382987Y0154054D01*
X0383055Y0154112D01*
X0383126Y0154166D01*
X0383199Y0154217D01*
X0383274Y0154265D01*
X0383351Y0154310D01*
X0383430Y0154351D01*
X0383511Y0154388D01*
X0383593Y0154422D01*
X0383677Y0154453D01*
X0383762Y0154479D01*
X0383848Y0154502D01*
X0383935Y0154520D01*
X0384023Y0154535D01*
X0384112Y0154546D01*
X0384201Y0154553D01*
X0384290Y0154556D01*
X0384379Y0154555D01*
X0384468Y0154550D01*
X0384556Y0154541D01*
X0384645Y0154528D01*
X0384732Y0154511D01*
X0384819Y0154491D01*
X0384905Y0154466D01*
X0384989Y0154438D01*
X0385072Y0154406D01*
X0385154Y0154370D01*
X0385234Y0154331D01*
X0385312Y0154288D01*
X0385388Y0154242D01*
X0385462Y0154192D01*
X0385534Y0154139D01*
X0385603Y0154083D01*
X0385670Y0154024D01*
X0385734Y0153962D01*
X0385795Y0153898D01*
X0385854Y0153830D01*
X0385909Y0153760D01*
X0385961Y0153688D01*
X0386010Y0153613D01*
X0386055Y0153537D01*
X0386097Y0153458D01*
X0386135Y0153378D01*
X0386170Y0153296D01*
X0386201Y0153212D01*
X0386229Y0153127D01*
X0386252Y0153041D01*
X0386272Y0152954D01*
X0386288Y0152867D01*
X0386300Y0152778D01*
X0386308Y0152690D01*
X0386312Y0152601D01*
X0386312Y0152511D01*
X0386308Y0152422D01*
X0386300Y0152334D01*
X0386288Y0152245D01*
X0386272Y0152158D01*
X0386252Y0152071D01*
X0386229Y0151985D01*
X0386201Y0151900D01*
X0386170Y0151816D01*
X0386135Y0151734D01*
X0386097Y0151654D01*
X0386055Y0151575D01*
X0386010Y0151499D01*
X0385961Y0151424D01*
X0385909Y0151352D01*
X0385854Y0151282D01*
X0385795Y0151214D01*
X0385734Y0151150D01*
X0385670Y0151088D01*
X0385603Y0151029D01*
X0385534Y0150973D01*
X0385462Y0150920D01*
X0385388Y0150870D01*
X0385312Y0150824D01*
X0385234Y0150781D01*
X0385154Y0150742D01*
X0385072Y0150706D01*
X0384989Y0150674D01*
X0384905Y0150646D01*
X0384819Y0150621D01*
X0384732Y0150601D01*
X0384645Y0150584D01*
X0384556Y0150571D01*
X0384468Y0150562D01*
X0384379Y0150557D01*
X0384290Y0150556D01*
X0384201Y0150559D01*
X0384112Y0150566D01*
X0384023Y0150577D01*
X0383935Y0150592D01*
X0383848Y0150610D01*
X0383762Y0150633D01*
X0383677Y0150659D01*
X0383593Y0150690D01*
X0383511Y0150724D01*
X0383430Y0150761D01*
X0383351Y0150802D01*
X0383274Y0150847D01*
X0383199Y0150895D01*
X0383126Y0150946D01*
X0383055Y0151000D01*
X0382987Y0151058D01*
X0382922Y0151118D01*
X0382859Y0151182D01*
X0382799Y0151248D01*
X0382742Y0151317D01*
X0382689Y0151388D01*
X0382638Y0151461D01*
X0382591Y0151537D01*
X0382548Y0151614D01*
X0382507Y0151694D01*
X0382471Y0151775D01*
X0382438Y0151858D01*
X0382409Y0151942D01*
X0382383Y0152028D01*
X0382361Y0152114D01*
X0382344Y0152201D01*
X0382330Y0152289D01*
X0382320Y0152378D01*
X0382314Y0152467D01*
X0382312Y0152556D01*
X0374512Y0147354D02*
X0374512Y0146555D01*
X0343670Y0157756D02*
X0343670Y0184756D01*
X0343668Y0184816D01*
X0343663Y0184877D01*
X0343654Y0184936D01*
X0343641Y0184995D01*
X0343625Y0185054D01*
X0343605Y0185111D01*
X0343582Y0185166D01*
X0343555Y0185221D01*
X0343526Y0185273D01*
X0343493Y0185324D01*
X0343457Y0185373D01*
X0343419Y0185419D01*
X0343377Y0185463D01*
X0343333Y0185505D01*
X0343287Y0185543D01*
X0343238Y0185579D01*
X0343187Y0185612D01*
X0343135Y0185641D01*
X0343080Y0185668D01*
X0343025Y0185691D01*
X0342968Y0185711D01*
X0342909Y0185727D01*
X0342850Y0185740D01*
X0342791Y0185749D01*
X0342730Y0185754D01*
X0342670Y0185756D01*
X0315670Y0185756D01*
X0315610Y0185754D01*
X0315549Y0185749D01*
X0315490Y0185740D01*
X0315431Y0185727D01*
X0315372Y0185711D01*
X0315315Y0185691D01*
X0315260Y0185668D01*
X0315205Y0185641D01*
X0315153Y0185612D01*
X0315102Y0185579D01*
X0315053Y0185543D01*
X0315007Y0185505D01*
X0314963Y0185463D01*
X0314921Y0185419D01*
X0314883Y0185373D01*
X0314847Y0185324D01*
X0314814Y0185273D01*
X0314785Y0185221D01*
X0314758Y0185166D01*
X0314735Y0185111D01*
X0314715Y0185054D01*
X0314699Y0184995D01*
X0314686Y0184936D01*
X0314677Y0184877D01*
X0314672Y0184816D01*
X0314670Y0184756D01*
X0314670Y0157756D01*
X0314672Y0157696D01*
X0314677Y0157635D01*
X0314686Y0157576D01*
X0314699Y0157517D01*
X0314715Y0157458D01*
X0314735Y0157401D01*
X0314758Y0157346D01*
X0314785Y0157291D01*
X0314814Y0157239D01*
X0314847Y0157188D01*
X0314883Y0157139D01*
X0314921Y0157093D01*
X0314963Y0157049D01*
X0315007Y0157007D01*
X0315053Y0156969D01*
X0315102Y0156933D01*
X0315153Y0156900D01*
X0315205Y0156871D01*
X0315260Y0156844D01*
X0315315Y0156821D01*
X0315372Y0156801D01*
X0315431Y0156785D01*
X0315490Y0156772D01*
X0315549Y0156763D01*
X0315610Y0156758D01*
X0315670Y0156756D01*
X0342670Y0156756D01*
X0342730Y0156758D01*
X0342791Y0156763D01*
X0342850Y0156772D01*
X0342909Y0156785D01*
X0342968Y0156801D01*
X0343025Y0156821D01*
X0343080Y0156844D01*
X0343135Y0156871D01*
X0343187Y0156900D01*
X0343238Y0156933D01*
X0343287Y0156969D01*
X0343333Y0157007D01*
X0343377Y0157049D01*
X0343419Y0157093D01*
X0343457Y0157139D01*
X0343493Y0157188D01*
X0343526Y0157239D01*
X0343555Y0157291D01*
X0343582Y0157346D01*
X0343605Y0157401D01*
X0343625Y0157458D01*
X0343641Y0157517D01*
X0343654Y0157576D01*
X0343663Y0157635D01*
X0343668Y0157696D01*
X0343670Y0157756D01*
X0335170Y0171256D02*
X0330970Y0171256D01*
X0327470Y0171256D02*
X0323170Y0171256D01*
X0374512Y0173354D02*
X0380812Y0173354D01*
X0387812Y0173354D02*
X0400512Y0173354D01*
X0407512Y0173354D02*
X0413812Y0173354D01*
X0402170Y0131256D02*
X0386170Y0131256D01*
X0386170Y0121256D01*
X0402170Y0121256D01*
X0402170Y0131256D01*
X0398170Y0128756D02*
X0394170Y0126256D01*
X0394170Y0123756D01*
X0394170Y0126256D02*
X0391670Y0126256D01*
X0394170Y0126256D02*
X0394170Y0128756D01*
X0394170Y0126256D02*
X0400170Y0126256D01*
X0398170Y0128756D02*
X0398170Y0123756D01*
X0394170Y0126256D01*
X0433930Y0056843D02*
X0443331Y0056843D01*
X0469331Y0056843D01*
X0470131Y0056843D01*
X0470131Y0017543D01*
X0469331Y0017543D01*
X0443331Y0017543D01*
X0433930Y0017543D01*
X0433930Y0056843D01*
X0443331Y0056843D02*
X0443331Y0050543D01*
X0443331Y0043543D02*
X0443331Y0030843D01*
X0443331Y0023843D02*
X0443331Y0017543D01*
X0462130Y0027343D02*
X0462132Y0027432D01*
X0462138Y0027521D01*
X0462148Y0027610D01*
X0462162Y0027698D01*
X0462179Y0027785D01*
X0462201Y0027871D01*
X0462227Y0027957D01*
X0462256Y0028041D01*
X0462289Y0028124D01*
X0462325Y0028205D01*
X0462366Y0028285D01*
X0462409Y0028362D01*
X0462456Y0028438D01*
X0462507Y0028511D01*
X0462560Y0028582D01*
X0462617Y0028651D01*
X0462677Y0028717D01*
X0462740Y0028781D01*
X0462805Y0028841D01*
X0462873Y0028899D01*
X0462944Y0028953D01*
X0463017Y0029004D01*
X0463092Y0029052D01*
X0463169Y0029097D01*
X0463248Y0029138D01*
X0463329Y0029175D01*
X0463411Y0029209D01*
X0463495Y0029240D01*
X0463580Y0029266D01*
X0463666Y0029289D01*
X0463753Y0029307D01*
X0463841Y0029322D01*
X0463930Y0029333D01*
X0464019Y0029340D01*
X0464108Y0029343D01*
X0464197Y0029342D01*
X0464286Y0029337D01*
X0464374Y0029328D01*
X0464463Y0029315D01*
X0464550Y0029298D01*
X0464637Y0029278D01*
X0464723Y0029253D01*
X0464807Y0029225D01*
X0464890Y0029193D01*
X0464972Y0029157D01*
X0465052Y0029118D01*
X0465130Y0029075D01*
X0465206Y0029029D01*
X0465280Y0028979D01*
X0465352Y0028926D01*
X0465421Y0028870D01*
X0465488Y0028811D01*
X0465552Y0028749D01*
X0465613Y0028685D01*
X0465672Y0028617D01*
X0465727Y0028547D01*
X0465779Y0028475D01*
X0465828Y0028400D01*
X0465873Y0028324D01*
X0465915Y0028245D01*
X0465953Y0028165D01*
X0465988Y0028083D01*
X0466019Y0027999D01*
X0466047Y0027914D01*
X0466070Y0027828D01*
X0466090Y0027741D01*
X0466106Y0027654D01*
X0466118Y0027565D01*
X0466126Y0027477D01*
X0466130Y0027388D01*
X0466130Y0027298D01*
X0466126Y0027209D01*
X0466118Y0027121D01*
X0466106Y0027032D01*
X0466090Y0026945D01*
X0466070Y0026858D01*
X0466047Y0026772D01*
X0466019Y0026687D01*
X0465988Y0026603D01*
X0465953Y0026521D01*
X0465915Y0026441D01*
X0465873Y0026362D01*
X0465828Y0026286D01*
X0465779Y0026211D01*
X0465727Y0026139D01*
X0465672Y0026069D01*
X0465613Y0026001D01*
X0465552Y0025937D01*
X0465488Y0025875D01*
X0465421Y0025816D01*
X0465352Y0025760D01*
X0465280Y0025707D01*
X0465206Y0025657D01*
X0465130Y0025611D01*
X0465052Y0025568D01*
X0464972Y0025529D01*
X0464890Y0025493D01*
X0464807Y0025461D01*
X0464723Y0025433D01*
X0464637Y0025408D01*
X0464550Y0025388D01*
X0464463Y0025371D01*
X0464374Y0025358D01*
X0464286Y0025349D01*
X0464197Y0025344D01*
X0464108Y0025343D01*
X0464019Y0025346D01*
X0463930Y0025353D01*
X0463841Y0025364D01*
X0463753Y0025379D01*
X0463666Y0025397D01*
X0463580Y0025420D01*
X0463495Y0025446D01*
X0463411Y0025477D01*
X0463329Y0025511D01*
X0463248Y0025548D01*
X0463169Y0025589D01*
X0463092Y0025634D01*
X0463017Y0025682D01*
X0462944Y0025733D01*
X0462873Y0025787D01*
X0462805Y0025845D01*
X0462740Y0025905D01*
X0462677Y0025969D01*
X0462617Y0026035D01*
X0462560Y0026104D01*
X0462507Y0026175D01*
X0462456Y0026248D01*
X0462409Y0026324D01*
X0462366Y0026401D01*
X0462325Y0026481D01*
X0462289Y0026562D01*
X0462256Y0026645D01*
X0462227Y0026729D01*
X0462201Y0026815D01*
X0462179Y0026901D01*
X0462162Y0026988D01*
X0462148Y0027076D01*
X0462138Y0027165D01*
X0462132Y0027254D01*
X0462130Y0027343D01*
X0469331Y0017543D02*
X0469331Y0056843D01*
X0462130Y0047043D02*
X0462132Y0047132D01*
X0462138Y0047221D01*
X0462148Y0047310D01*
X0462162Y0047398D01*
X0462179Y0047485D01*
X0462201Y0047571D01*
X0462227Y0047657D01*
X0462256Y0047741D01*
X0462289Y0047824D01*
X0462325Y0047905D01*
X0462366Y0047985D01*
X0462409Y0048062D01*
X0462456Y0048138D01*
X0462507Y0048211D01*
X0462560Y0048282D01*
X0462617Y0048351D01*
X0462677Y0048417D01*
X0462740Y0048481D01*
X0462805Y0048541D01*
X0462873Y0048599D01*
X0462944Y0048653D01*
X0463017Y0048704D01*
X0463092Y0048752D01*
X0463169Y0048797D01*
X0463248Y0048838D01*
X0463329Y0048875D01*
X0463411Y0048909D01*
X0463495Y0048940D01*
X0463580Y0048966D01*
X0463666Y0048989D01*
X0463753Y0049007D01*
X0463841Y0049022D01*
X0463930Y0049033D01*
X0464019Y0049040D01*
X0464108Y0049043D01*
X0464197Y0049042D01*
X0464286Y0049037D01*
X0464374Y0049028D01*
X0464463Y0049015D01*
X0464550Y0048998D01*
X0464637Y0048978D01*
X0464723Y0048953D01*
X0464807Y0048925D01*
X0464890Y0048893D01*
X0464972Y0048857D01*
X0465052Y0048818D01*
X0465130Y0048775D01*
X0465206Y0048729D01*
X0465280Y0048679D01*
X0465352Y0048626D01*
X0465421Y0048570D01*
X0465488Y0048511D01*
X0465552Y0048449D01*
X0465613Y0048385D01*
X0465672Y0048317D01*
X0465727Y0048247D01*
X0465779Y0048175D01*
X0465828Y0048100D01*
X0465873Y0048024D01*
X0465915Y0047945D01*
X0465953Y0047865D01*
X0465988Y0047783D01*
X0466019Y0047699D01*
X0466047Y0047614D01*
X0466070Y0047528D01*
X0466090Y0047441D01*
X0466106Y0047354D01*
X0466118Y0047265D01*
X0466126Y0047177D01*
X0466130Y0047088D01*
X0466130Y0046998D01*
X0466126Y0046909D01*
X0466118Y0046821D01*
X0466106Y0046732D01*
X0466090Y0046645D01*
X0466070Y0046558D01*
X0466047Y0046472D01*
X0466019Y0046387D01*
X0465988Y0046303D01*
X0465953Y0046221D01*
X0465915Y0046141D01*
X0465873Y0046062D01*
X0465828Y0045986D01*
X0465779Y0045911D01*
X0465727Y0045839D01*
X0465672Y0045769D01*
X0465613Y0045701D01*
X0465552Y0045637D01*
X0465488Y0045575D01*
X0465421Y0045516D01*
X0465352Y0045460D01*
X0465280Y0045407D01*
X0465206Y0045357D01*
X0465130Y0045311D01*
X0465052Y0045268D01*
X0464972Y0045229D01*
X0464890Y0045193D01*
X0464807Y0045161D01*
X0464723Y0045133D01*
X0464637Y0045108D01*
X0464550Y0045088D01*
X0464463Y0045071D01*
X0464374Y0045058D01*
X0464286Y0045049D01*
X0464197Y0045044D01*
X0464108Y0045043D01*
X0464019Y0045046D01*
X0463930Y0045053D01*
X0463841Y0045064D01*
X0463753Y0045079D01*
X0463666Y0045097D01*
X0463580Y0045120D01*
X0463495Y0045146D01*
X0463411Y0045177D01*
X0463329Y0045211D01*
X0463248Y0045248D01*
X0463169Y0045289D01*
X0463092Y0045334D01*
X0463017Y0045382D01*
X0462944Y0045433D01*
X0462873Y0045487D01*
X0462805Y0045545D01*
X0462740Y0045605D01*
X0462677Y0045669D01*
X0462617Y0045735D01*
X0462560Y0045804D01*
X0462507Y0045875D01*
X0462456Y0045948D01*
X0462409Y0046024D01*
X0462366Y0046101D01*
X0462325Y0046181D01*
X0462289Y0046262D01*
X0462256Y0046345D01*
X0462227Y0046429D01*
X0462201Y0046515D01*
X0462179Y0046601D01*
X0462162Y0046688D01*
X0462148Y0046776D01*
X0462138Y0046865D01*
X0462132Y0046954D01*
X0462130Y0047043D01*
X0408870Y0037441D02*
X0396670Y0037441D01*
D11*
X0332170Y0089556D02*
X0329170Y0089556D01*
X0326170Y0089556D01*
X0326170Y0093056D02*
X0329170Y0093056D01*
X0332170Y0093056D01*
X0330970Y0128571D02*
X0330970Y0131571D01*
X0330970Y0134571D01*
X0327470Y0134571D02*
X0327470Y0131571D01*
X0327470Y0128571D01*
X0327470Y0168256D02*
X0327470Y0171256D01*
X0327470Y0174256D01*
X0330970Y0174256D02*
X0330970Y0171256D01*
X0330970Y0168256D01*
D12*
X0334463Y0155010D02*
X0333712Y0154259D01*
X0333712Y0151257D01*
X0334463Y0150506D01*
X0335964Y0150506D01*
X0336715Y0151257D01*
X0338316Y0150506D02*
X0341319Y0153508D01*
X0341319Y0154259D01*
X0340568Y0155010D01*
X0339067Y0155010D01*
X0338316Y0154259D01*
X0336715Y0154259D02*
X0335964Y0155010D01*
X0334463Y0155010D01*
X0338316Y0150506D02*
X0341319Y0150506D01*
X0386420Y0137510D02*
X0386420Y0133006D01*
X0388672Y0133006D01*
X0389423Y0133757D01*
X0389423Y0136759D01*
X0388672Y0137510D01*
X0386420Y0137510D01*
X0391024Y0137510D02*
X0391024Y0135258D01*
X0392525Y0136008D01*
X0393276Y0136008D01*
X0394026Y0135258D01*
X0394026Y0133757D01*
X0393276Y0133006D01*
X0391775Y0133006D01*
X0391024Y0133757D01*
X0391024Y0137510D02*
X0394026Y0137510D01*
X0391161Y0154006D02*
X0388159Y0154006D01*
X0391161Y0157008D01*
X0391161Y0157759D01*
X0390410Y0158510D01*
X0388909Y0158510D01*
X0388159Y0157759D01*
X0407659Y0157008D02*
X0409160Y0158510D01*
X0409160Y0154006D01*
X0407659Y0154006D02*
X0410661Y0154006D01*
X0407210Y0176206D02*
X0404959Y0176206D01*
X0404959Y0180710D01*
X0407210Y0180710D01*
X0407961Y0179959D01*
X0407961Y0176957D01*
X0407210Y0176206D01*
X0403357Y0176206D02*
X0403357Y0179208D01*
X0401856Y0180710D01*
X0400355Y0179208D01*
X0400355Y0176206D01*
X0398753Y0176206D02*
X0395751Y0176206D01*
X0395751Y0180710D01*
X0398753Y0180710D01*
X0397252Y0178458D02*
X0395751Y0178458D01*
X0394149Y0178458D02*
X0393399Y0177707D01*
X0391147Y0177707D01*
X0392648Y0177707D02*
X0394149Y0176206D01*
X0394149Y0178458D02*
X0394149Y0179959D01*
X0393399Y0180710D01*
X0391147Y0180710D01*
X0391147Y0176206D01*
X0400355Y0178458D02*
X0403357Y0178458D01*
X0402484Y0120010D02*
X0400982Y0120010D01*
X0400232Y0119259D01*
X0400232Y0116257D01*
X0403234Y0119259D01*
X0403234Y0116257D01*
X0402484Y0115506D01*
X0400982Y0115506D01*
X0400232Y0116257D01*
X0398630Y0117758D02*
X0395628Y0117758D01*
X0397880Y0120010D01*
X0397880Y0115506D01*
X0394026Y0115506D02*
X0394026Y0120010D01*
X0391024Y0120010D02*
X0394026Y0115506D01*
X0391024Y0115506D02*
X0391024Y0120010D01*
X0387921Y0120010D02*
X0387921Y0115506D01*
X0386420Y0115506D02*
X0389423Y0115506D01*
X0386420Y0118508D02*
X0387921Y0120010D01*
X0402484Y0120010D02*
X0403234Y0119259D01*
X0404836Y0119259D02*
X0405586Y0120010D01*
X0407088Y0120010D01*
X0407838Y0119259D01*
X0404836Y0116257D01*
X0405586Y0115506D01*
X0407088Y0115506D01*
X0407838Y0116257D01*
X0407838Y0119259D01*
X0409440Y0117758D02*
X0412442Y0117758D01*
X0411691Y0115506D02*
X0411691Y0120010D01*
X0409440Y0117758D01*
X0404836Y0116257D02*
X0404836Y0119259D01*
X0349920Y0103405D02*
X0349920Y0100402D01*
X0349920Y0101903D02*
X0345416Y0101903D01*
X0346917Y0100402D01*
X0346167Y0098801D02*
X0345416Y0098050D01*
X0345416Y0096549D01*
X0346167Y0095798D01*
X0349169Y0095798D01*
X0349920Y0096549D01*
X0349920Y0098050D01*
X0349169Y0098801D01*
X0340568Y0110821D02*
X0339067Y0110821D01*
X0338316Y0111572D01*
X0336715Y0111572D02*
X0335964Y0110821D01*
X0334463Y0110821D01*
X0333712Y0111572D01*
X0333712Y0114574D01*
X0334463Y0115325D01*
X0335964Y0115325D01*
X0336715Y0114574D01*
X0338316Y0114574D02*
X0339067Y0115325D01*
X0340568Y0115325D01*
X0341319Y0114574D01*
X0341319Y0113823D01*
X0340568Y0113073D01*
X0341319Y0112322D01*
X0341319Y0111572D01*
X0340568Y0110821D01*
X0340568Y0113073D02*
X0339817Y0113073D01*
X0236013Y0063407D02*
X0233761Y0061155D01*
X0236763Y0061155D01*
X0236013Y0058903D02*
X0236013Y0063407D01*
X0232159Y0062656D02*
X0232159Y0061155D01*
X0231409Y0060404D01*
X0229157Y0060404D01*
X0229157Y0058903D02*
X0229157Y0063407D01*
X0231409Y0063407D01*
X0232159Y0062656D01*
X0227556Y0063407D02*
X0226054Y0063407D01*
X0226805Y0063407D02*
X0226805Y0059653D01*
X0226054Y0058903D01*
X0225304Y0058903D01*
X0224553Y0059653D01*
X0224553Y0042737D02*
X0227556Y0042737D01*
X0229157Y0042737D02*
X0229157Y0038984D01*
X0229908Y0038233D01*
X0231409Y0038233D01*
X0232159Y0038984D01*
X0232159Y0042737D01*
X0233761Y0041987D02*
X0233761Y0041236D01*
X0234512Y0040485D01*
X0236013Y0040485D01*
X0236763Y0039735D01*
X0236763Y0038984D01*
X0236013Y0038233D01*
X0234512Y0038233D01*
X0233761Y0038984D01*
X0238365Y0038233D02*
X0241367Y0038233D01*
X0242969Y0038233D02*
X0245971Y0038233D01*
X0244470Y0038233D02*
X0244470Y0042737D01*
X0242969Y0041236D01*
X0241367Y0042737D02*
X0238365Y0042737D01*
X0238365Y0038233D01*
X0238365Y0040485D02*
X0239866Y0040485D01*
X0236763Y0041987D02*
X0236013Y0042737D01*
X0234512Y0042737D01*
X0233761Y0041987D01*
X0226054Y0040485D02*
X0224553Y0040485D01*
X0224553Y0038233D02*
X0224553Y0042737D01*
X0246538Y0030362D02*
X0247289Y0031112D01*
X0248039Y0031112D01*
X0248790Y0030362D01*
X0249541Y0031112D01*
X0250291Y0031112D01*
X0251042Y0030362D01*
X0251042Y0028860D01*
X0250291Y0028110D01*
X0250291Y0026508D02*
X0247289Y0026508D01*
X0246538Y0025758D01*
X0246538Y0023506D01*
X0251042Y0023506D01*
X0251042Y0025758D01*
X0250291Y0026508D01*
X0247289Y0028110D02*
X0246538Y0028860D01*
X0246538Y0030362D01*
X0248790Y0030362D02*
X0248790Y0029611D01*
X0264038Y0028110D02*
X0268542Y0031112D01*
X0264038Y0031112D01*
X0266290Y0032714D02*
X0266290Y0035716D01*
X0264789Y0037318D02*
X0264038Y0038068D01*
X0264038Y0039570D01*
X0264789Y0040320D01*
X0267791Y0037318D01*
X0268542Y0038068D01*
X0268542Y0039570D01*
X0267791Y0040320D01*
X0264789Y0040320D01*
X0264789Y0041922D02*
X0264038Y0042672D01*
X0264038Y0044174D01*
X0264789Y0044924D01*
X0267791Y0041922D01*
X0268542Y0042672D01*
X0268542Y0044174D01*
X0267791Y0044924D01*
X0264789Y0044924D01*
X0266290Y0046526D02*
X0264038Y0048777D01*
X0268542Y0048777D01*
X0266290Y0049528D02*
X0266290Y0046526D01*
X0272786Y0047154D02*
X0275038Y0044902D01*
X0275038Y0047904D01*
X0277290Y0047154D02*
X0272786Y0047154D01*
X0273537Y0043301D02*
X0276539Y0040298D01*
X0277290Y0041049D01*
X0277290Y0042550D01*
X0276539Y0043301D01*
X0273537Y0043301D01*
X0272786Y0042550D01*
X0272786Y0041049D01*
X0273537Y0040298D01*
X0276539Y0040298D01*
X0276539Y0038697D02*
X0273537Y0038697D01*
X0276539Y0035694D01*
X0277290Y0036445D01*
X0277290Y0037946D01*
X0276539Y0038697D01*
X0273537Y0038697D02*
X0272786Y0037946D01*
X0272786Y0036445D01*
X0273537Y0035694D01*
X0276539Y0035694D01*
X0275038Y0034093D02*
X0275038Y0031090D01*
X0272786Y0033342D01*
X0277290Y0033342D01*
X0277290Y0029489D02*
X0272786Y0029489D01*
X0272786Y0026486D02*
X0277290Y0029489D01*
X0277290Y0026486D02*
X0272786Y0026486D01*
X0272786Y0023384D02*
X0277290Y0023384D01*
X0277290Y0024885D02*
X0277290Y0021882D01*
X0274287Y0021882D02*
X0272786Y0023384D01*
X0268542Y0023506D02*
X0268542Y0026508D01*
X0268542Y0025007D02*
X0264038Y0025007D01*
X0265539Y0023506D01*
X0264038Y0028110D02*
X0268542Y0028110D01*
X0266290Y0032714D02*
X0264038Y0034966D01*
X0268542Y0034966D01*
X0267791Y0037318D02*
X0264789Y0037318D01*
X0264789Y0041922D02*
X0267791Y0041922D01*
X0290286Y0042550D02*
X0290286Y0040298D01*
X0294790Y0040298D01*
X0294790Y0042550D01*
X0294039Y0043301D01*
X0291037Y0043301D01*
X0290286Y0042550D01*
X0291787Y0044902D02*
X0290286Y0046403D01*
X0294790Y0046403D01*
X0294790Y0044902D02*
X0294790Y0047905D01*
X0298667Y0041112D02*
X0297916Y0040362D01*
X0297916Y0038860D01*
X0298667Y0038110D01*
X0298667Y0036508D02*
X0297916Y0035758D01*
X0297916Y0033506D01*
X0302420Y0033506D01*
X0302420Y0035758D01*
X0301669Y0036508D01*
X0298667Y0036508D01*
X0302420Y0038110D02*
X0299417Y0041112D01*
X0298667Y0041112D01*
X0302420Y0041112D02*
X0302420Y0038110D01*
X0315416Y0038110D02*
X0319920Y0041112D01*
X0315416Y0041112D01*
X0317668Y0042714D02*
X0317668Y0045716D01*
X0316167Y0047318D02*
X0315416Y0048068D01*
X0315416Y0049570D01*
X0316167Y0050320D01*
X0319169Y0047318D01*
X0319920Y0048068D01*
X0319920Y0049570D01*
X0319169Y0050320D01*
X0316167Y0050320D01*
X0316167Y0051922D02*
X0315416Y0052672D01*
X0315416Y0054174D01*
X0316167Y0054924D01*
X0319169Y0051922D01*
X0319920Y0052672D01*
X0319920Y0054174D01*
X0319169Y0054924D01*
X0316167Y0054924D01*
X0317668Y0056526D02*
X0317668Y0059528D01*
X0315416Y0058777D02*
X0317668Y0056526D01*
X0319920Y0058777D02*
X0315416Y0058777D01*
X0316167Y0051922D02*
X0319169Y0051922D01*
X0319169Y0047318D02*
X0316167Y0047318D01*
X0315416Y0044966D02*
X0317668Y0042714D01*
X0319920Y0044966D02*
X0315416Y0044966D01*
X0315416Y0038110D02*
X0319920Y0038110D01*
X0319920Y0036508D02*
X0319920Y0033506D01*
X0319920Y0035007D02*
X0315416Y0035007D01*
X0316917Y0033506D01*
X0326920Y0033613D02*
X0326920Y0032112D01*
X0327671Y0031361D01*
X0330673Y0031361D01*
X0327671Y0034364D01*
X0330673Y0034364D01*
X0331424Y0033613D01*
X0331424Y0032112D01*
X0330673Y0031361D01*
X0330673Y0029760D02*
X0327671Y0029760D01*
X0330673Y0026757D01*
X0331424Y0027508D01*
X0331424Y0029009D01*
X0330673Y0029760D01*
X0327671Y0029760D02*
X0326920Y0029009D01*
X0326920Y0027508D01*
X0327671Y0026757D01*
X0330673Y0026757D01*
X0329172Y0025156D02*
X0329172Y0022153D01*
X0326920Y0024405D01*
X0331424Y0024405D01*
X0331424Y0020552D02*
X0326920Y0020552D01*
X0326920Y0017549D02*
X0331424Y0020552D01*
X0331424Y0017549D02*
X0326920Y0017549D01*
X0326920Y0014447D02*
X0331424Y0014447D01*
X0331424Y0015948D02*
X0331424Y0012945D01*
X0328421Y0012945D02*
X0326920Y0014447D01*
X0344420Y0031361D02*
X0344420Y0033613D01*
X0345171Y0034364D01*
X0348173Y0034364D01*
X0348924Y0033613D01*
X0348924Y0031361D01*
X0344420Y0031361D01*
X0346672Y0035965D02*
X0346672Y0038968D01*
X0348924Y0038217D02*
X0344420Y0038217D01*
X0346672Y0035965D01*
X0331424Y0038217D02*
X0326920Y0038217D01*
X0329172Y0035965D01*
X0329172Y0038967D01*
X0327671Y0034364D02*
X0326920Y0033613D01*
X0435976Y0032576D02*
X0435976Y0029574D01*
X0435976Y0031075D02*
X0440480Y0031075D01*
X0440480Y0028006D02*
X0440480Y0026504D01*
X0440480Y0027255D02*
X0435976Y0027255D01*
X0435976Y0026504D02*
X0435976Y0028006D01*
X0435976Y0024903D02*
X0440480Y0024903D01*
X0438979Y0023402D01*
X0440480Y0021900D01*
X0435976Y0021900D01*
X0436727Y0020299D02*
X0435976Y0019548D01*
X0435976Y0018047D01*
X0436727Y0017296D01*
X0437477Y0017296D01*
X0438228Y0018047D01*
X0438228Y0019548D01*
X0438979Y0020299D01*
X0439729Y0020299D01*
X0440480Y0019548D01*
X0440480Y0018047D01*
X0439729Y0017296D01*
X0458176Y0031940D02*
X0458927Y0031189D01*
X0458176Y0031940D02*
X0458176Y0033441D01*
X0458927Y0034192D01*
X0459677Y0034192D01*
X0462680Y0031189D01*
X0462680Y0034192D01*
X0440480Y0034928D02*
X0440480Y0036429D01*
X0439729Y0037180D01*
X0440480Y0038781D02*
X0435976Y0038781D01*
X0436727Y0037180D02*
X0435976Y0036429D01*
X0435976Y0034928D01*
X0436727Y0034178D01*
X0439729Y0034178D01*
X0440480Y0034928D01*
X0438228Y0038781D02*
X0438228Y0041784D01*
X0438228Y0043385D02*
X0438228Y0046388D01*
X0437477Y0046388D02*
X0440480Y0046388D01*
X0439729Y0047989D02*
X0440480Y0048740D01*
X0440480Y0050241D01*
X0439729Y0050992D01*
X0436727Y0050992D02*
X0435976Y0050241D01*
X0435976Y0048740D01*
X0436727Y0047989D01*
X0439729Y0047989D01*
X0437477Y0046388D02*
X0435976Y0044887D01*
X0437477Y0043385D01*
X0440480Y0043385D01*
X0440480Y0041784D02*
X0435976Y0041784D01*
X0458176Y0052191D02*
X0462680Y0052191D01*
X0462680Y0053692D02*
X0462680Y0050689D01*
X0459677Y0050689D02*
X0458176Y0052191D01*
X0174438Y0043722D02*
X0171436Y0043722D01*
X0171436Y0039218D01*
X0174438Y0039218D01*
X0172937Y0041470D02*
X0171436Y0041470D01*
X0169834Y0040719D02*
X0169834Y0039968D01*
X0169084Y0039218D01*
X0167582Y0039218D01*
X0166832Y0039968D01*
X0165230Y0039968D02*
X0165230Y0043722D01*
X0165069Y0043706D02*
X0165069Y0048210D01*
X0167321Y0048210D01*
X0168072Y0047459D01*
X0168072Y0045958D01*
X0167321Y0045207D01*
X0165069Y0045207D01*
X0166571Y0045207D02*
X0168072Y0043706D01*
X0167582Y0043722D02*
X0166832Y0042971D01*
X0166832Y0042220D01*
X0167582Y0041470D01*
X0169084Y0041470D01*
X0169834Y0040719D01*
X0169834Y0042971D02*
X0169084Y0043722D01*
X0167582Y0043722D01*
X0163468Y0043706D02*
X0160465Y0043706D01*
X0160465Y0048210D01*
X0163468Y0048210D01*
X0161967Y0045958D02*
X0160465Y0045958D01*
X0160626Y0043722D02*
X0157624Y0043722D01*
X0157624Y0039218D01*
X0157775Y0038706D02*
X0157775Y0043210D01*
X0158864Y0043706D02*
X0158864Y0048210D01*
X0157363Y0046708D01*
X0155862Y0048210D01*
X0155862Y0043706D01*
X0154773Y0043210D02*
X0157775Y0038706D01*
X0159377Y0039457D02*
X0160127Y0038706D01*
X0161628Y0038706D01*
X0162379Y0039457D01*
X0162379Y0040207D01*
X0161628Y0040958D01*
X0160127Y0040958D01*
X0159377Y0041708D01*
X0159377Y0042459D01*
X0160127Y0043210D01*
X0161628Y0043210D01*
X0162379Y0042459D01*
X0162228Y0043722D02*
X0162228Y0039968D01*
X0162978Y0039218D01*
X0164480Y0039218D01*
X0165230Y0039968D01*
X0159125Y0041470D02*
X0157624Y0041470D01*
X0154773Y0043210D02*
X0154773Y0038706D01*
X0153171Y0038706D02*
X0153171Y0041708D01*
X0151670Y0043210D01*
X0150169Y0041708D01*
X0150169Y0038706D01*
X0148567Y0038706D02*
X0147066Y0040207D01*
X0147817Y0040207D02*
X0145565Y0040207D01*
X0145565Y0038706D02*
X0145565Y0043210D01*
X0147817Y0043210D01*
X0148567Y0042459D01*
X0148567Y0040958D01*
X0147817Y0040207D01*
X0150169Y0040958D02*
X0153171Y0040958D01*
X0154260Y0043706D02*
X0152759Y0045207D01*
X0153510Y0045207D02*
X0151258Y0045207D01*
X0151258Y0043706D02*
X0151258Y0048210D01*
X0153510Y0048210D01*
X0154260Y0047459D01*
X0154260Y0045958D01*
X0153510Y0045207D01*
X0149656Y0044457D02*
X0148906Y0043706D01*
X0147404Y0043706D01*
X0146654Y0044457D01*
X0146654Y0047459D01*
X0147404Y0048210D01*
X0148906Y0048210D01*
X0149656Y0047459D01*
X0149656Y0044457D01*
X0143963Y0043210D02*
X0140961Y0043210D01*
X0142050Y0043706D02*
X0142050Y0048210D01*
X0145052Y0048210D01*
X0143551Y0045958D02*
X0142050Y0045958D01*
X0140448Y0045207D02*
X0140448Y0044457D01*
X0139698Y0043706D01*
X0138196Y0043706D01*
X0137446Y0044457D01*
X0136357Y0043210D02*
X0136357Y0038706D01*
X0139359Y0038706D01*
X0137858Y0040958D02*
X0136357Y0040958D01*
X0134756Y0040207D02*
X0134756Y0039457D01*
X0134005Y0038706D01*
X0132504Y0038706D01*
X0131753Y0039457D01*
X0130152Y0039457D02*
X0130152Y0043210D01*
X0131241Y0043706D02*
X0131241Y0046708D01*
X0129739Y0048210D01*
X0128238Y0046708D01*
X0128238Y0043706D01*
X0127149Y0043210D02*
X0127149Y0039457D01*
X0127900Y0038706D01*
X0129401Y0038706D01*
X0130152Y0039457D01*
X0131753Y0041708D02*
X0132504Y0040958D01*
X0134005Y0040958D01*
X0134756Y0040207D01*
X0134756Y0042459D02*
X0134005Y0043210D01*
X0132504Y0043210D01*
X0131753Y0042459D01*
X0131753Y0041708D01*
X0132842Y0043706D02*
X0132842Y0048210D01*
X0135844Y0043706D01*
X0135844Y0048210D01*
X0137446Y0047459D02*
X0137446Y0046708D01*
X0138196Y0045958D01*
X0139698Y0045958D01*
X0140448Y0045207D01*
X0140448Y0047459D02*
X0139698Y0048210D01*
X0138196Y0048210D01*
X0137446Y0047459D01*
X0131241Y0045958D02*
X0128238Y0045958D01*
X0126637Y0045958D02*
X0125886Y0045207D01*
X0123634Y0045207D01*
X0123634Y0043706D02*
X0123634Y0048210D01*
X0125886Y0048210D01*
X0126637Y0047459D01*
X0126637Y0045958D01*
X0125135Y0045207D02*
X0126637Y0043706D01*
X0125548Y0043210D02*
X0122545Y0043210D01*
X0122545Y0038706D01*
X0122545Y0040958D02*
X0124046Y0040958D01*
X0120531Y0043706D02*
X0120531Y0048210D01*
X0119030Y0048210D02*
X0122033Y0048210D01*
X0117429Y0048210D02*
X0114426Y0048210D01*
X0115927Y0048210D02*
X0115927Y0043706D01*
X0112825Y0044457D02*
X0112074Y0043706D01*
X0110573Y0043706D01*
X0109822Y0044457D01*
X0109822Y0048210D01*
X0108221Y0047459D02*
X0108221Y0045958D01*
X0107470Y0045207D01*
X0105218Y0045207D01*
X0105218Y0043706D02*
X0105218Y0048210D01*
X0107470Y0048210D01*
X0108221Y0047459D01*
X0112825Y0048210D02*
X0112825Y0044457D01*
X0103617Y0043706D02*
X0103617Y0048210D01*
X0100614Y0048210D02*
X0103617Y0043706D01*
X0100614Y0043706D02*
X0100614Y0048210D01*
X0099046Y0048210D02*
X0097545Y0048210D01*
X0098296Y0048210D02*
X0098296Y0043706D01*
X0099046Y0043706D02*
X0097545Y0043706D01*
X0074845Y0051870D02*
X0074845Y0054873D01*
X0074845Y0053372D02*
X0070341Y0053372D01*
X0071843Y0051870D01*
X0052645Y0051422D02*
X0052645Y0049921D01*
X0051895Y0049170D01*
X0048892Y0049170D01*
X0048141Y0049921D01*
X0048141Y0051422D01*
X0048892Y0052173D01*
X0051895Y0052173D02*
X0052645Y0051422D01*
X0052645Y0047569D02*
X0049643Y0047569D01*
X0048141Y0046068D01*
X0049643Y0044566D01*
X0052645Y0044566D01*
X0050393Y0044566D02*
X0050393Y0047569D01*
X0048141Y0042965D02*
X0048141Y0039963D01*
X0048141Y0041464D02*
X0052645Y0041464D01*
X0051895Y0038361D02*
X0048141Y0038361D01*
X0048141Y0035359D02*
X0051895Y0035359D01*
X0052645Y0036109D01*
X0052645Y0037611D01*
X0051895Y0038361D01*
X0050393Y0033757D02*
X0051144Y0033007D01*
X0051144Y0030755D01*
X0052645Y0030755D02*
X0048141Y0030755D01*
X0048141Y0033007D01*
X0048892Y0033757D01*
X0050393Y0033757D01*
X0052645Y0029153D02*
X0048141Y0029153D01*
X0048141Y0026151D02*
X0052645Y0029153D01*
X0052645Y0026151D02*
X0048141Y0026151D01*
X0048141Y0024583D02*
X0048141Y0023082D01*
X0048141Y0023832D02*
X0052645Y0023832D01*
X0052645Y0023082D02*
X0052645Y0024583D01*
X0070341Y0033121D02*
X0071092Y0032370D01*
X0070341Y0033121D02*
X0070341Y0034622D01*
X0071092Y0035373D01*
X0071843Y0035373D01*
X0074845Y0032370D01*
X0074845Y0035373D01*
X0097545Y0028210D02*
X0099046Y0028210D01*
X0098296Y0028210D02*
X0098296Y0023706D01*
X0099046Y0023706D02*
X0097545Y0023706D01*
X0100614Y0023706D02*
X0100614Y0028210D01*
X0103617Y0023706D01*
X0103617Y0028210D01*
X0105218Y0028210D02*
X0107470Y0028210D01*
X0108221Y0027459D01*
X0108221Y0025958D01*
X0107470Y0025207D01*
X0105218Y0025207D01*
X0105218Y0023706D02*
X0105218Y0028210D01*
X0109822Y0028210D02*
X0109822Y0024457D01*
X0110573Y0023706D01*
X0112074Y0023706D01*
X0112825Y0024457D01*
X0112825Y0028210D01*
X0114426Y0028210D02*
X0117429Y0028210D01*
X0115927Y0028210D02*
X0115927Y0023706D01*
X0120531Y0023706D02*
X0120531Y0028210D01*
X0119030Y0028210D02*
X0122033Y0028210D01*
X0123634Y0028210D02*
X0125886Y0028210D01*
X0126637Y0027459D01*
X0126637Y0025958D01*
X0125886Y0025207D01*
X0123634Y0025207D01*
X0123634Y0023706D02*
X0123634Y0028210D01*
X0128238Y0026708D02*
X0129739Y0028210D01*
X0131241Y0026708D01*
X0131241Y0023706D01*
X0130467Y0023525D02*
X0127464Y0023525D01*
X0127464Y0019021D01*
X0130467Y0019021D01*
X0132068Y0019772D02*
X0132068Y0022774D01*
X0132819Y0023525D01*
X0134320Y0023525D01*
X0135071Y0022774D01*
X0135844Y0023706D02*
X0135844Y0028210D01*
X0137446Y0027459D02*
X0138196Y0028210D01*
X0139698Y0028210D01*
X0140448Y0027459D01*
X0139698Y0025958D02*
X0140448Y0025207D01*
X0140448Y0024457D01*
X0139698Y0023706D01*
X0138196Y0023706D01*
X0137446Y0024457D01*
X0138173Y0023525D02*
X0138173Y0019021D01*
X0141276Y0019021D02*
X0141276Y0023525D01*
X0143528Y0023525D01*
X0144278Y0022774D01*
X0144278Y0021273D01*
X0143528Y0020522D01*
X0141276Y0020522D01*
X0142777Y0020522D02*
X0144278Y0019021D01*
X0145880Y0019021D02*
X0145880Y0022023D01*
X0147381Y0023525D01*
X0148882Y0022023D01*
X0148882Y0019021D01*
X0150484Y0019021D02*
X0150484Y0023525D01*
X0153486Y0019021D01*
X0153486Y0023525D01*
X0148882Y0021273D02*
X0145880Y0021273D01*
X0139674Y0023525D02*
X0136672Y0023525D01*
X0135844Y0023706D02*
X0132842Y0028210D01*
X0132842Y0023706D01*
X0133569Y0021273D02*
X0135071Y0021273D01*
X0135071Y0019772D01*
X0134320Y0019021D01*
X0132819Y0019021D01*
X0132068Y0019772D01*
X0128965Y0021273D02*
X0127464Y0021273D01*
X0128238Y0023706D02*
X0128238Y0026708D01*
X0128238Y0025958D02*
X0131241Y0025958D01*
X0126637Y0023706D02*
X0125135Y0025207D01*
X0125863Y0023525D02*
X0125863Y0019021D01*
X0122860Y0023525D01*
X0122860Y0019021D01*
X0137446Y0026708D02*
X0138196Y0025958D01*
X0139698Y0025958D01*
X0137446Y0026708D02*
X0137446Y0027459D01*
X0142462Y0038706D02*
X0142462Y0043210D01*
X0139359Y0043210D02*
X0136357Y0043210D01*
X0157624Y0059653D02*
X0158375Y0058903D01*
X0159125Y0058903D01*
X0159876Y0059653D01*
X0159876Y0063407D01*
X0160626Y0063407D02*
X0159125Y0063407D01*
X0162228Y0063407D02*
X0164480Y0063407D01*
X0165230Y0062656D01*
X0165230Y0061155D01*
X0164480Y0060404D01*
X0162228Y0060404D01*
X0162228Y0058903D02*
X0162228Y0063407D01*
X0166832Y0062656D02*
X0167582Y0063407D01*
X0169084Y0063407D01*
X0169834Y0062656D01*
X0169834Y0061905D01*
X0169084Y0061155D01*
X0169834Y0060404D01*
X0169834Y0059653D01*
X0169084Y0058903D01*
X0167582Y0058903D01*
X0166832Y0059653D01*
X0168333Y0061155D02*
X0169084Y0061155D01*
D13*
X0257792Y0025756D03*
X0283540Y0046756D03*
X0309170Y0035756D03*
X0337674Y0037819D03*
D14*
X0337674Y0044069D03*
X0309170Y0053006D03*
X0283540Y0053006D03*
X0257792Y0043006D03*
X0283540Y0029506D03*
X0309170Y0029506D03*
X0337674Y0020569D03*
X0257792Y0019506D03*
D15*
X0388670Y0126256D03*
D16*
X0382420Y0126256D03*
X0405920Y0126256D03*
D17*
X0396670Y0078441D02*
X0396670Y0073441D01*
X0396670Y0068441D01*
X0391670Y0068441D01*
X0391670Y0073441D01*
X0391670Y0078441D01*
X0394170Y0039941D02*
X0396670Y0037441D01*
X0397870Y0036141D01*
D18*
X0377411Y0025096D02*
X0377411Y0018791D01*
X0381615Y0018791D01*
X0375169Y0019842D02*
X0375169Y0021944D01*
X0374118Y0022995D01*
X0373067Y0022995D01*
X0370965Y0021944D01*
X0370965Y0025096D01*
X0375169Y0025096D01*
X0368724Y0024045D02*
X0367673Y0025096D01*
X0365571Y0025096D01*
X0364520Y0024045D01*
X0364520Y0019842D01*
X0365571Y0018791D01*
X0367673Y0018791D01*
X0368724Y0019842D01*
X0368724Y0021944D01*
X0366622Y0021944D01*
X0370965Y0019842D02*
X0372016Y0018791D01*
X0374118Y0018791D01*
X0375169Y0019842D01*
X0370567Y0012096D02*
X0370567Y0005791D01*
X0368465Y0005791D02*
X0372669Y0005791D01*
X0368465Y0009995D02*
X0370567Y0012096D01*
X0366224Y0012096D02*
X0362020Y0007893D01*
X0363071Y0008944D02*
X0366224Y0005791D01*
X0362020Y0005791D02*
X0362020Y0012096D01*
M02*
